<svg xmlns="http://www.w3.org/2000/svg" width="600" height="600" viewBox="0 0 600 600">
  <defs>
    <style>
      .cls-1 {
        fill: #f54329;
        fill-rule: evenodd;
      }
    </style>
  </defs>
  <path class="cls-1" d="M225,84s46.556-46.667,56-55c8.889-6.667,32.556-5.889,42,3,7.778,6.667,234.556,234.556,244,244s13,33.889,3,45c-6.667,7.222-242.444,241.889-248,248-8.333,8.333-31.667,10.667-45-1-8.889-8.889-243.556-242.444-248-248-6.667-6.667-8.333-30.667,0-39L201,109s36,36.889,61,63c-5.556,25-3.556,40,22,55,0,35.556-1.161,109.338,0,153-48.678,29.2-18.111,80,18,80s62.333-50.778,19-78V230s44.889,46.333,56,58c-13.889,57.222,45.778,67,68,47s21.556-83-44-73c-15-14.444-43.556-45.667-58-59,2.222-21.667-.222-31.111-13-45s-26.444-13.778-42-11C273,132.556,225,84,225,84Z"/>
</svg>
